<svg width="18" height="14" viewBox="0 0 18 14" fill="none" xmlns="http://www.w3.org/2000/svg">
<path fill-rule="evenodd" clip-rule="evenodd" d="M14.8332 0.333344C16.2139 0.333344 17.3332 1.45263 17.3332 2.83334V4.50001C17.3332 4.96025 16.9601 5.33334 16.4998 5.33334C15.5794 5.33334 14.8332 6.07953 14.8332 7.00001C14.8332 7.87864 15.5131 8.59848 16.3755 8.6621L16.597 8.67228C17.0115 8.72042 17.3332 9.07265 17.3332 9.50001V11.1667C17.3332 12.5474 16.2139 13.6667 14.8332 13.6667H3.1665C1.78579 13.6667 0.666504 12.5474 0.666504 11.1667V9.50001C0.666504 9.07265 0.988204 8.72042 1.40265 8.67228L1.62422 8.6621C2.48661 8.59848 3.1665 7.87864 3.1665 7.00001C3.1665 6.07953 2.42031 5.33334 1.49984 5.33334C1.0396 5.33334 0.666504 4.96025 0.666504 4.50001V2.83334C0.666504 1.45263 1.78579 0.333344 3.1665 0.333344H14.8332ZM9.83317 2H3.16651C2.70627 2 2.33317 2.3731 2.33317 2.83334V3.77168C3.77086 4.14172 4.83317 5.4468 4.83317 7C4.83317 8.5532 3.77086 9.85828 2.33317 10.2283V11.1667C2.33317 11.6269 2.70627 12 3.16651 12H9.83317V11.1667C9.83317 10.7064 10.2063 10.3333 10.6665 10.3333C11.1267 10.3333 11.4998 10.7064 11.4998 11.1667V12H14.8332C15.2934 12 15.6665 11.6269 15.6665 11.1667V10.2283C14.2288 9.85828 13.1665 8.5532 13.1665 7C13.1665 5.50433 14.1516 4.23873 15.5083 3.81661L15.6665 3.77168V2.83334C15.6665 2.3731 15.2934 2 14.8332 2H11.4998V2.83334C11.4998 3.29357 11.1267 3.66667 10.6665 3.66667C10.2063 3.66667 9.83317 3.29357 9.83317 2.83334V2ZM10.6665 5.33334C11.1267 5.33334 11.4998 5.70644 11.4998 6.16668V7.83334C11.4998 8.29358 11.1267 8.66667 10.6665 8.66667C10.2063 8.66667 9.83317 8.29358 9.83317 7.83334V6.16668C9.83317 5.70644 10.2063 5.33334 10.6665 5.33334Z" fill="#101010"/>
</svg>
